<svg width="31" height="65" viewBox="0 0 31 65" fill="none" xmlns="http://www.w3.org/2000/svg">
<g id="icon-mongodb" clip-path="url(#clip0_316_316)">
<path id="Vector" d="M21.0323 7.63325C18.3343 4.44632 16.0111 1.20959 15.5365 0.537347C15.4865 0.487551 15.4115 0.487551 15.3616 0.537347C14.8869 1.20959 12.5637 4.44632 9.86574 7.63325C-13.2916 37.0376 13.513 56.8813 13.513 56.8813L13.7378 57.0306C13.9377 60.0932 14.4373 64.5 14.4373 64.5H15.4365H16.4358C16.4358 64.5 16.9354 60.118 17.1352 57.0306L17.36 56.8565C17.385 56.8565 44.1896 37.0376 21.0323 7.63325ZM15.4365 56.433C15.4365 56.433 14.2374 55.4123 13.9127 54.8893V54.8397L15.3616 22.8209C15.3616 22.7213 15.5115 22.7213 15.5115 22.8209L16.9604 54.8397V54.8893C16.6356 55.4123 15.4365 56.433 15.4365 56.433Z" fill="#00684A"/>
</g>
<defs>
<clipPath id="clip0_316_316">
<rect width="29.7674" height="64" fill="white" transform="translate(0.440918 0.5)"/>
</clipPath>
</defs>
</svg>
