<svg width="41" height="40" viewBox="0 0 41 40" fill="none" xmlns="http://www.w3.org/2000/svg">
<g id="icon-user">
<path id="Vector" fill-rule="evenodd" clip-rule="evenodd" d="M13.1665 10C13.1665 8.01088 13.9567 6.10322 15.3632 4.6967C16.7697 3.29018 18.6774 2.5 20.6665 2.5C22.6556 2.5 24.5633 3.29018 25.9698 4.6967C27.3763 6.10322 28.1665 8.01088 28.1665 10C28.1665 11.9891 27.3763 13.8968 25.9698 15.3033C24.5633 16.7098 22.6556 17.5 20.6665 17.5C18.6774 17.5 16.7697 16.7098 15.3632 15.3033C13.9567 13.8968 13.1665 11.9891 13.1665 10ZM6.91817 33.5083C6.97437 29.8991 8.44757 26.4568 11.0198 23.9243C13.592 21.3918 17.0569 19.9724 20.6665 19.9724C24.2761 19.9724 27.741 21.3918 30.3132 23.9243C32.8854 26.4568 34.3586 29.8991 34.4148 33.5083C34.4192 33.7513 34.3526 33.9903 34.2232 34.196C34.0939 34.4017 33.9074 34.5653 33.6865 34.6667C29.6018 36.5395 25.1601 37.5061 20.6665 37.5C16.0232 37.5 11.6115 36.4867 7.6465 34.6667C7.42564 34.5653 7.23913 34.4017 7.10977 34.196C6.98042 33.9903 6.91383 33.7513 6.91817 33.5083Z" fill="black"/>
</g>
</svg>
